:SAMPLES-PER-SECOND 24
:FULLY-SPECIFIED
:DEGREES
436
root  13.3292 41.9108 19.1559 5.45154 -61.3295 2.79016
RightUpLeg  -5.91271 0.819614 -10.0592
RightLeg  21.3396 -0.773458 -0.449927
RightFoot  -1.96608 -1.01456 12.0263
RightToes  -2.08645e-008 3.77894e-005 6.81332e-007
Spine  0.232035 3.20963 1.95356
Spine1  7.39545 4.75636 -6.34252
HEad  -33.9925 31.6618 -18.4843
LeftShoulder1  6.1175 -11.6916 -34.2541
LeftArm  5.73447 37.9719 -30.9795
LeftForeArm  169.666 -60.8939 -162.2
LeftHand  0.229066 -4.1162 -2.5237
RightShoulder  3.90297 6.68219 32.4299
RightArm  23.705 -35.4324 25.5593
RightForeArm  153.047 73.0777 145.692
RightHand  0.0912895 9.50889 0.306071
LeftUpLeg  -21.6768 7.24467 6.73437
LeftLeg  15.5386 -3.41935 -0.920225
LeftFoot  18.6742 4.30032 -16.3617
LeftToes  1.24767e-006 1.47042e-008 1.32732e-009
437
root  13.3928 41.3946 19.4396 5.43213 -60.3753 2.44427
RightUpLeg  -5.94421 5.49163 -10.1277
RightLeg  16.1412 -1.92376 -1.36923
RightFoot  -4.34578 -0.554608 8.55978
RightToes  -2.08645e-008 3.77894e-005 6.81332e-007
Spine  0.367085 3.0731 2.91928
Spine1  7.34628 4.84307 -7.35047
HEad  -34.2917 30.4701 -19.2011
LeftShoulder1  5.92247 -11.4451 -33.6185
LeftArm  4.3458 37.2724 -30.045
LeftForeArm  168.121 -62.1265 -161.153
LeftHand  0.122256 -3.79866 -1.28493
RightShoulder  3.84352 6.60138 32.149
RightArm  24.2807 -33.0411 25.9388
RightForeArm  150.041 74.6316 141.642
RightHand  0.0213652 9.32877 -0.230138
LeftUpLeg  -21.0312 6.97997 8.02586
LeftLeg  18.3601 3.68747 1.69255
LeftFoot  16.3556 2.45922 -10.3145
LeftToes  1.24767e-006 1.47042e-008 1.32732e-009
438
root  13.5076 40.1728 19.6182 4.74158 -58.581 2.77563
RightUpLeg  -7.71556 9.83427 -10.7164
RightLeg  19.1328 -1.67095 -0.854633
RightFoot  -9.81147 -0.184818 8.82315
RightToes  -2.08645e-008 3.77894e-005 6.81332e-007
Spine  1.68926 2.94784 2.09896
Spine1  6.19634 4.48608 -6.59005
HEad  -34.7072 28.9878 -19.2173
LeftShoulder1  5.93184 -11.4728 -33.6082
LeftArm  2.04054 34.4037 -29.9353
LeftForeArm  165.906 -65.0114 -158.512
LeftHand  -0.0205165 -3.38457 0.515986
RightShoulder  3.92183 6.67617 32.6397
RightArm  24.3053 -29.6511 25.6013
RightForeArm  145.854 76.0471 136.791
RightHand  -0.0675179 9.0174 -0.936254
LeftUpLeg  -21.4986 5.49059 9.01214
LeftLeg  23.4281 7.66765 3.96071
LeftFoot  9.91906 2.19571 -11.9886
LeftToes  1.24767e-006 1.47042e-008 1.32732e-009
439
root  13.6982 38.6077 19.824 4.06323 -55.8785 2.44977
RightUpLeg  -9.05917 9.34843 -10.103
RightLeg  27.382 -3.64565 -2.31516
RightFoot  -19.0493 0.384503 7.67635
RightToes  -2.08645e-008 3.77894e-005 6.81332e-007
Spine  2.9589 2.57957 1.78686
Spine1  6.39496 3.85724 -5.41756
HEad  -35.5755 27.4413 -19.348
LeftShoulder1  6.62438 -12.2318 -36.0413
LeftArm  -0.333763 28.0701 -27.9243
LeftForeArm  162.182 -68.7818 -153.951
LeftHand  -0.284842 -2.67454 4.32245
RightShoulder  3.99998 6.72314 33.227
RightArm  22.4451 -24.1982 27.2099
RightForeArm  129.909 78.7185 120.979
RightHand  -0.242709 9.00915 -2.34595
LeftUpLeg  -22.2259 3.44214 9.72092
LeftLeg  29.0185 6.53557 4.23954
LeftFoot  -1.31668 1.45178 -16.2468
LeftToes  1.24767e-006 1.47042e-008 1.32732e-009
440
root  13.8815 37.4588 20.1896 4.20947 -51.5943 1.23114
RightUpLeg  -8.20886 8.28286 -8.78365
RightLeg  32.1097 -8.64006 -6.02031
RightFoot  -25.4481 0.719332 7.13452
RightToes  -2.08645e-008 3.77894e-005 6.81332e-007
Spine  2.04163 1.85721 2.04807
Spine1  9.22672 2.88322 -4.11643
HEad  -36.7294 25.7619 -18.9832
LeftShoulder1  7.71265 -13.3452 -39.591
LeftArm  -3.01631 19.9126 -26.2919
LeftForeArm  156.283 -73.9411 -144.239
LeftHand  -0.53615 -1.85547 8.77368
RightShoulder  4.08359 6.74547 33.954
RightArm  18.1983 -19.0423 30.1062
RightForeArm  103.121 80.4238 91.7125
RightHand  -0.356909 9.19404 -3.22728
LeftUpLeg  -24.044 0.141615 9.91321
LeftLeg  33.559 4.73272 3.74805
LeftFoot  -10.2874 0.22819 -16.1776
LeftToes  1.24767e-006 1.47042e-008 1.32732e-009
441
root  13.9995 37.323 20.7615 4.13782 -47.3226 0.55072
RightUpLeg  -5.92168 6.37123 -8.4584
RightLeg  32.0056 -9.97192 -6.88013
RightFoot  -25.6795 1.02771 9.52269
RightToes  -2.08645e-008 3.77894e-005 6.81332e-007
Spine  0.553821 1.57131 1.85378
Spine1  11.4191 2.3275 -2.90367
HEad  -37.2989 23.9926 -17.3634
LeftShoulder1  8.09378 -13.7276 -40.7312
LeftArm  -4.77571 15.9451 -28.9496
LeftForeArm  149.621 -77.0959 -134.111
LeftHand  -0.583072 -1.55776 9.91497
RightShoulder  4.18897 6.7946 34.779
RightArm  14.0473 -19.0875 32.205
RightForeArm  99.7703 80.5211 86.326
RightHand  -0.409035 8.94695 -3.69311
LeftUpLeg  -24.6808 -4.34746 9.2437
LeftLeg  34.6094 6.01444 4.80517
LeftFoot  -11.6499 0.0316496 -13.6548
LeftToes  1.24767e-006 1.47042e-008 1.32732e-009
442
root  14.0824 38.2693 21.4715 4.55896 -45.9221 -0.349976
RightUpLeg  -3.73251 4.16933 -8.8931
RightLeg  28.6931 -8.06451 -4.98393
RightFoot  -19.2358 0.680485 11.722
RightToes  -2.08645e-008 3.77894e-005 6.81332e-007
Spine  -0.12085 2.16939 2.73682
Spine1  10.9338 3.06409 -3.19192
HEad  -35.7272 23.6008 -15.5905
LeftShoulder1  7.63562 -13.2828 -39.321
LeftArm  -4.13167 19.3013 -33.2547
LeftForeArm  153.846 -75.5142 -140.03
LeftHand  -0.505095 -1.38954 8.81086
RightShoulder  4.19082 6.76809 34.9012
RightArm  13.8121 -22.7382 33.8438
RightForeArm  118.308 80.0935 106.094
RightHand  -0.263208 8.91263 -2.52146
LeftUpLeg  -21.8096 -5.08505 8.74488
LeftLeg  29.8501 6.3968 4.30172
LeftFoot  -7.24854 0.482871 -12.2666
LeftToes  1.24767e-006 1.47042e-008 1.32732e-009
443
root  14.1149 39.7649 22.1909 7.12158 -46.7825 -2.52356
RightUpLeg  -3.66062 2.69595 -8.46166
RightLeg  24.388 -7.16946 -3.75205
RightFoot  -7.5984 -0.370957 10.1457
RightToes  -2.08645e-008 3.77894e-005 6.81332e-007
Spine  -1.41016 3.07456 4.47694
Spine1  9.17535 4.19011 -4.14011
HEad  -32.6139 25.0272 -14.2158
LeftShoulder1  6.99297 -12.6004 -37.3434
LeftArm  -2.1116 26.5201 -34.8097
LeftForeArm  161.234 -71.14 -150.493
LeftHand  -0.435021 -1.75405 7.25778
RightShoulder  4.10641 6.72311 34.2626
RightArm  17.2168 -25.3557 34.4892
RightForeArm  136.772 78.5456 124.278
RightHand  -0.204061 9.31995 -2.02494
LeftUpLeg  -17.9279 1.01404 9.3122
LeftLeg  21.1606 1.05764 0.828091
LeftFoot  -0.167282 1.34634 -13.5784
LeftToes  1.24767e-006 1.47042e-008 1.32732e-009
444
root  14.1149 40.8874 22.7328 10.0581 -46.7978 -4.26581
RightUpLeg  -5.13251 0.840431 -7.46574
RightLeg  21.8272 -7.2743 -3.4056
RightFoot  -0.505866 -0.777674 8.01095
RightToes  -2.08645e-008 3.77894e-005 6.81332e-007
Spine  -3.09358 3.40002 4.2651
Spine1  7.63042 4.40855 -4.19073
HEad  -31.1746 25.8477 -13.4359
LeftShoulder1  6.51367 -12.1313 -35.6315
LeftArm  0.120837 32.9526 -33.107
LeftForeArm  166.004 -66.878 -156.669
LeftHand  -0.279889 -2.40144 4.36804
RightShoulder  4.07347 6.78442 33.7068
RightArm  20.8806 -26.1078 33.1297
RightForeArm  152.905 76.1846 137.803
RightHand  0.239177 10.8869 1.27934
LeftUpLeg  -16.3402 6.88308 10.0902
LeftLeg  14.7677 -5.11236 -1.30889
LeftFoot  5.8059 2.63412 -17.56
LeftToes  1.24767e-006 1.47042e-008 1.32732e-009
445
root  14.2204 41.2848 23.1039 10.8727 -44.7657 -4.73889
RightUpLeg  -4.84195 -0.644257 -6.72897
RightLeg  19.789 -5.08422 -2.2279
RightFoot  -3.02491 -0.681926 9.12748
RightToes  -2.08645e-008 3.77894e-005 6.81332e-007
Spine  -3.3705 2.83444 2.63962
Spine1  7.20782 3.67873 -3.51247
HEad  -32.1418 24.3173 -13.9951
LeftShoulder1  6.30486 -12.0472 -34.5338
LeftArm  2.99432 35.5973 -29.6064
LeftForeArm  167.089 -64.0571 -159.487
LeftHand  -0.131776 -2.66793 2.11319
RightShoulder  3.99816 6.74265 33.1353
RightArm  22.9886 -25.0298 31.3076
RightForeArm  158.903 74.0521 144.605
RightHand  0.257184 10.964 1.39861
LeftUpLeg  -16.5507 3.52739 11.0589
LeftLeg  14.2211 -2.9114 -0.430075
LeftFoot  7.58015 3.10114 -18.7818
LeftToes  1.24767e-006 1.47042e-008 1.32732e-009
446
root  14.4523 41.0712 23.4445 10.8423 -42.3257 -5.44391
RightUpLeg  -3.43845 1.72375 -5.71278
RightLeg  16.9091 -0.587422 -0.794931
RightFoot  -6.54184 -0.516619 11.228
RightToes  -2.08645e-008 3.77894e-005 6.81332e-007
Spine  -2.48649 2.29982 1.89261
Spine1  7.49738 3.01465 -2.87706
HEad  -32.9268 21.5666 -14.8204
LeftShoulder1  6.04902 -11.8455 -33.4094
LeftArm  6.0839 34.2037 -27.1823
LeftForeArm  166.972 -63.5018 -159.947
LeftHand  -0.139831 -2.78393 2.20695
RightShoulder  3.80621 6.51614 32.1
RightArm  23.6051 -22.9788 30.1632
RightForeArm  156.995 73.3533 145.795
RightHand  0.104546 9.89126 0.383851
LeftUpLeg  -17.4648 -2.83341 12.2208
LeftLeg  18.5139 3.31802 1.56559
LeftFoot  5.83405 2.27842 -15.2489
LeftToes  1.24767e-006 1.47042e-008 1.32732e-009
447
root  14.7001 40.2654 23.7888 10.9799 -40.9403 -5.8913
RightUpLeg  -3.63836 7.28906 -5.10437
RightLeg  16.6711 0.309067 -0.593908
RightFoot  -8.44613 -0.337781 10.912
RightToes  -2.08645e-008 3.77894e-005 6.81332e-007
Spine  -1.23937 2.43219 1.63051
Spine1  6.78845 3.16902 -3.10312
HEad  -32.8204 18.8156 -14.4393
LeftShoulder1  5.56373 -11.2318 -31.7625
LeftArm  8.58671 30.3912 -26.3142
LeftForeArm  166.647 -64.7138 -158.866
LeftHand  -0.184256 -2.7864 2.8401
RightShoulder  3.69736 6.43848 31.2963
RightArm  22.3567 -21.997 29.0571
RightForeArm  154.954 73.7902 144.524
RightHand  -0.107307 8.75651 -1.25766
LeftUpLeg  -18.6129 -4.10344 11.9053
LeftLeg  23.5623 5.7611 3.06567
LeftFoot  0.194975 1.28038 -12.7245
LeftToes  1.24767e-006 1.47042e-008 1.32732e-009
